<svg width="24" height="24" viewBox="0 0 24 24" fill="none" xmlns="http://www.w3.org/2000/svg">
<path fill-rule="evenodd" clip-rule="evenodd" d="M2.3999 9.6001C2.3999 9.28184 2.52633 8.97661 2.75137 8.75157C2.97642 8.52653 3.28164 8.4001 3.5999 8.4001H15.9695C16.2878 8.4001 16.593 8.52653 16.818 8.75157C17.0431 8.97661 17.1695 9.28184 17.1695 9.6001C17.1695 9.91836 17.0431 10.2236 16.818 10.4486C16.593 10.6737 16.2878 10.8001 15.9695 10.8001H3.5999C3.28164 10.8001 2.97642 10.6737 2.75137 10.4486C2.52633 10.2236 2.3999 9.91836 2.3999 9.6001ZM2.3999 4.8001C2.3999 4.48184 2.52633 4.17661 2.75137 3.95157C2.97642 3.72653 3.28164 3.6001 3.5999 3.6001H20.3999C20.7182 3.6001 21.0234 3.72653 21.2484 3.95157C21.4735 4.17661 21.5999 4.48184 21.5999 4.8001C21.5999 5.11836 21.4735 5.42358 21.2484 5.64863C21.0234 5.87367 20.7182 6.0001 20.3999 6.0001H3.5999C3.28164 6.0001 2.97642 5.87367 2.75137 5.64863C2.52633 5.42358 2.3999 5.11836 2.3999 4.8001ZM2.3999 14.4001C2.3999 14.0818 2.52633 13.7766 2.75137 13.5516C2.97642 13.3265 3.28164 13.2001 3.5999 13.2001H20.3999C20.7182 13.2001 21.0234 13.3265 21.2484 13.5516C21.4735 13.7766 21.5999 14.0818 21.5999 14.4001C21.5999 14.7184 21.4735 15.0236 21.2484 15.2486C21.0234 15.4737 20.7182 15.6001 20.3999 15.6001H3.5999C3.28164 15.6001 2.97642 15.4737 2.75137 15.2486C2.52633 15.0236 2.3999 14.7184 2.3999 14.4001ZM2.3999 19.2001C2.3999 18.8818 2.52633 18.5766 2.75137 18.3516C2.97642 18.1265 3.28164 18.0001 3.5999 18.0001H15.9695C16.2878 18.0001 16.593 18.1265 16.818 18.3516C17.0431 18.5766 17.1695 18.8818 17.1695 19.2001C17.1695 19.5184 17.0431 19.8236 16.818 20.0486C16.593 20.2737 16.2878 20.4001 15.9695 20.4001H3.5999C3.28164 20.4001 2.97642 20.2737 2.75137 20.0486C2.52633 19.8236 2.3999 19.5184 2.3999 19.2001Z" fill="white"/>
</svg>
